<mxfile host="app.diagrams.net" modified="2021-03-15T04:12:50.746Z" agent="5.0 (Windows NT 10.0; Win64; x64) AppleWebKit/537.36 (KHTML, like Gecko) Chrome/88.0.4324.190 Safari/537.36" etag="4mPYCRNtlLOQbg22dGJy" version="14.4.8" type="github">
  <diagram id="4hXSr7YYDCH2MzOkBca7" name="Page-1">
    <mxGraphModel dx="2370" dy="1323" grid="1" gridSize="10" guides="1" tooltips="1" connect="1" arrows="1" fold="1" page="1" pageScale="1" pageWidth="850" pageHeight="1100" math="0" shadow="0">
      <root>
        <mxCell id="0" />
        <mxCell id="1" parent="0" />
        <mxCell id="kHCigE6dLtSPf8LyAXuR-9" value="&lt;span id=&quot;docs-internal-guid-d713976d-7fff-15ba-6aab-0c5461dfcb95&quot;&gt;&lt;span style=&quot;font-size: 11pt ; font-family: &amp;#34;arial&amp;#34; ; background-color: transparent ; vertical-align: baseline&quot;&gt;&lt;u&gt;VIN&lt;br&gt;&lt;/u&gt;body_type&lt;br&gt;height&lt;br&gt;year&lt;br&gt;model_name&lt;br&gt;franchise_make&lt;br&gt;fleet&lt;br&gt;isCab&lt;br&gt;&lt;u&gt;package_id&lt;br&gt;&lt;/u&gt;&lt;br&gt;&lt;u&gt;engine_id&lt;br&gt;&lt;br&gt;factor_id&lt;br&gt;&lt;br&gt;spec_id&lt;br&gt;&lt;br&gt;package_id&lt;br&gt;&lt;br&gt;listing_id&lt;/u&gt;&lt;/span&gt;&lt;/span&gt;" style="rounded=1;whiteSpace=wrap;html=1;" vertex="1" parent="1">
          <mxGeometry x="510" y="380" width="160" height="360" as="geometry" />
        </mxCell>
        <mxCell id="kHCigE6dLtSPf8LyAXuR-1" value="&lt;span id=&quot;docs-internal-guid-46c6c081-7fff-b2ef-ff52-74019a285a5f&quot;&gt;&lt;span style=&quot;font-size: 11pt ; font-family: &amp;#34;arial&amp;#34; ; background-color: transparent ; vertical-align: baseline&quot;&gt;&lt;u&gt;package_id&lt;/u&gt;&lt;br&gt;back_legroom&lt;br&gt;front_legroom&lt;br&gt;interior_color&lt;br&gt;maximum_seating&lt;/span&gt;&lt;/span&gt;" style="rounded=1;whiteSpace=wrap;html=1;" vertex="1" parent="1">
          <mxGeometry x="170" y="380" width="150" height="130" as="geometry" />
        </mxCell>
        <mxCell id="kHCigE6dLtSPf8LyAXuR-2" value="&lt;span id=&quot;docs-internal-guid-fb434496-7fff-5c08-95a2-dbb4ad944740&quot;&gt;&lt;span style=&quot;font-size: 11pt ; font-family: &amp;#34;arial&amp;#34; ; background-color: transparent ; vertical-align: baseline&quot;&gt;&lt;u&gt;latitude&lt;br&gt;longitude&lt;/u&gt;&lt;br&gt;franchise_dealer&lt;br&gt;seller_rating&lt;/span&gt;&lt;/span&gt;" style="rounded=1;whiteSpace=wrap;html=1;" vertex="1" parent="1">
          <mxGeometry x="1580" y="380" width="120" height="90" as="geometry" />
        </mxCell>
        <mxCell id="kHCigE6dLtSPf8LyAXuR-3" value="&lt;span id=&quot;docs-internal-guid-49aadb8f-7fff-f2d6-41c5-a7cb2bbde353&quot;&gt;&lt;span style=&quot;font-size: 11pt ; font-family: &amp;#34;arial&amp;#34; ; background-color: transparent ; vertical-align: baseline&quot;&gt;&lt;u&gt;system_id&lt;/u&gt;&lt;br&gt;wheel_system&lt;br&gt;wheel_system_display&lt;br&gt;wheelbase&lt;/span&gt;&lt;/span&gt;" style="rounded=1;whiteSpace=wrap;html=1;" vertex="1" parent="1">
          <mxGeometry x="330" y="380" width="170" height="130" as="geometry" />
        </mxCell>
        <mxCell id="kHCigE6dLtSPf8LyAXuR-4" value="&lt;span id=&quot;docs-internal-guid-958814dd-7fff-f51a-6af3-f1a164e91ecc&quot;&gt;&lt;p dir=&quot;ltr&quot; style=&quot;line-height: 1.38 ; margin-top: 0pt ; margin-bottom: 0pt&quot;&gt;&lt;span style=&quot;font-size: 11pt ; font-family: &amp;#34;arial&amp;#34; ; background-color: transparent ; vertical-align: baseline&quot;&gt;&lt;u&gt;factor_id&lt;/u&gt;&lt;/span&gt;&lt;/p&gt;&lt;p dir=&quot;ltr&quot; style=&quot;line-height: 1.38 ; margin-top: 0pt ; margin-bottom: 0pt&quot;&gt;&lt;span style=&quot;font-size: 11pt ; font-family: &amp;#34;arial&amp;#34; ; background-color: transparent ; vertical-align: baseline&quot;&gt;salvage&lt;/span&gt;&lt;/p&gt;&lt;p dir=&quot;ltr&quot; style=&quot;line-height: 1.38 ; margin-top: 0pt ; margin-bottom: 0pt&quot;&gt;&lt;span style=&quot;font-size: 11pt ; font-family: &amp;#34;arial&amp;#34; ; background-color: transparent ; vertical-align: baseline&quot;&gt;saving&lt;/span&gt;&lt;span style=&quot;background-color: transparent ; font-family: &amp;#34;arial&amp;#34; ; font-size: 11pt&quot;&gt;_amount&lt;/span&gt;&lt;/p&gt;&lt;p dir=&quot;ltr&quot; style=&quot;line-height: 1.38 ; margin-top: 0pt ; margin-bottom: 0pt&quot;&gt;&lt;span style=&quot;background-color: transparent ; font-family: &amp;#34;arial&amp;#34; ; font-size: 11pt&quot;&gt;has_accidents&lt;/span&gt;&lt;/p&gt;&lt;p dir=&quot;ltr&quot; style=&quot;line-height: 1.38 ; margin-top: 0pt ; margin-bottom: 0pt&quot;&gt;&lt;span style=&quot;background-color: transparent ; font-family: &amp;#34;arial&amp;#34; ; font-size: 11pt&quot;&gt;owner_count&lt;/span&gt;&lt;/p&gt;&lt;p dir=&quot;ltr&quot; style=&quot;line-height: 1.38 ; margin-top: 0pt ; margin-bottom: 0pt&quot;&gt;&lt;span style=&quot;background-color: transparent ; font-family: &amp;#34;arial&amp;#34; ; font-size: 11pt&quot;&gt;frame_dam&lt;/span&gt;&lt;span style=&quot;background-color: transparent ; font-family: &amp;#34;arial&amp;#34; ; font-size: 11pt&quot;&gt;aged&lt;/span&gt;&lt;/p&gt;&lt;p dir=&quot;ltr&quot; style=&quot;line-height: 1.38 ; margin-top: 0pt ; margin-bottom: 0pt&quot;&gt;&lt;span style=&quot;font-size: 11pt ; font-family: &amp;#34;arial&amp;#34; ; background-color: transparent ; vertical-align: baseline&quot;&gt;is_new&lt;/span&gt;&lt;/p&gt;&lt;div&gt;&lt;span style=&quot;font-size: 11pt ; font-family: &amp;#34;arial&amp;#34; ; background-color: transparent ; vertical-align: baseline&quot;&gt;&lt;br&gt;&lt;/span&gt;&lt;/div&gt;&lt;/span&gt;" style="rounded=1;whiteSpace=wrap;html=1;" vertex="1" parent="1">
          <mxGeometry x="850" y="380" width="170" height="170" as="geometry" />
        </mxCell>
        <mxCell id="kHCigE6dLtSPf8LyAXuR-5" value="&lt;span id=&quot;docs-internal-guid-3f53433c-7fff-b1df-501c-9628d223bc14&quot;&gt;&lt;span style=&quot;font-size: 11pt ; font-family: &amp;#34;arial&amp;#34; ; background-color: transparent ; vertical-align: baseline&quot;&gt;&lt;u style=&quot;font-size: 14.6667px&quot;&gt;user_name&lt;/u&gt;&lt;br&gt;first_name&lt;br&gt;last_name&lt;br&gt;password&lt;br&gt;saved_listings&lt;/span&gt;&lt;/span&gt;" style="rounded=1;whiteSpace=wrap;html=1;" vertex="1" parent="1">
          <mxGeometry x="1450" y="380" width="120" height="100" as="geometry" />
        </mxCell>
        <mxCell id="kHCigE6dLtSPf8LyAXuR-6" value="&lt;span id=&quot;docs-internal-guid-ec27ddf9-7fff-18bb-cdf5-eddc3d0eac5e&quot;&gt;&lt;span style=&quot;font-size: 11pt ; font-family: &amp;#34;arial&amp;#34; ; background-color: transparent ; vertical-align: baseline&quot;&gt;&lt;u&gt;listing_id&lt;/u&gt;&lt;br&gt;listing_date&lt;br&gt;daysOnMarket&lt;br&gt;city,main_picture&lt;br&gt;url,major_options&lt;br&gt;price&lt;br&gt;seller_user_name&lt;/span&gt;&lt;/span&gt;" style="rounded=1;whiteSpace=wrap;html=1;" vertex="1" parent="1">
          <mxGeometry x="1300" y="380" width="140" height="150" as="geometry" />
        </mxCell>
        <mxCell id="kHCigE6dLtSPf8LyAXuR-7" value="&lt;span id=&quot;docs-internal-guid-eb317f85-7fff-bd84-4fd1-17e5ef25c3f5&quot;&gt;&lt;span style=&quot;font-size: 11pt ; font-family: &amp;#34;arial&amp;#34; ; background-color: transparent ; vertical-align: baseline&quot;&gt;&lt;u&gt;package_id&lt;br&gt;&lt;/u&gt;trim_id&lt;br&gt;trim_name&lt;/span&gt;&lt;/span&gt;" style="rounded=1;whiteSpace=wrap;html=1;" vertex="1" parent="1">
          <mxGeometry x="1180" y="380" width="110" height="90" as="geometry" />
        </mxCell>
        <mxCell id="kHCigE6dLtSPf8LyAXuR-8" value="&lt;span id=&quot;docs-internal-guid-861a54ae-7fff-4334-abd7-9c3ec9d3aabc&quot;&gt;&lt;span style=&quot;font-size: 11pt ; font-family: &amp;#34;arial&amp;#34; ; background-color: transparent ; vertical-align: baseline&quot;&gt;&lt;u&gt;spec_id&lt;br&gt;&lt;/u&gt;city_fuel_economy&lt;br&gt;fuel_tank_volume&lt;br&gt;fuel_type&lt;br&gt;highway_fuel&lt;br&gt;economy&lt;/span&gt;&lt;/span&gt;" style="rounded=1;whiteSpace=wrap;html=1;" vertex="1" parent="1">
          <mxGeometry x="1030" y="380" width="140" height="120" as="geometry" />
        </mxCell>
        <mxCell id="kHCigE6dLtSPf8LyAXuR-10" value="&lt;span id=&quot;docs-internal-guid-c57f0e8f-7fff-bf1a-02ec-6bb0a1ac6558&quot;&gt;&lt;span style=&quot;font-size: 11pt ; font-family: &amp;#34;arial&amp;#34; ; background-color: transparent ; vertical-align: baseline&quot;&gt;&lt;u&gt;engine_id&lt;br&gt;&lt;/u&gt;engine_cylinders&lt;br&gt;engine_displacement&lt;br&gt;engine_type&lt;br&gt;horsepower&lt;br&gt;transmission&lt;br&gt;transmission_display&lt;/span&gt;&lt;/span&gt;" style="rounded=1;whiteSpace=wrap;html=1;" vertex="1" parent="1">
          <mxGeometry x="680" y="380" width="160" height="140" as="geometry" />
        </mxCell>
        <mxCell id="kHCigE6dLtSPf8LyAXuR-11" value="&lt;span id=&quot;docs-internal-guid-334640ad-7fff-2eaa-fedb-a7532be57cc9&quot;&gt;&lt;span style=&quot;font-size: 11pt ; font-family: &amp;#34;arial&amp;#34; ; background-color: transparent ; vertical-align: baseline&quot;&gt;&lt;u&gt;listing_id&lt;/u&gt;&lt;/span&gt;&lt;/span&gt;" style="rounded=1;whiteSpace=wrap;html=1;" vertex="1" parent="1">
          <mxGeometry x="1850" y="380" width="100" height="40" as="geometry" />
        </mxCell>
        <mxCell id="kHCigE6dLtSPf8LyAXuR-12" value="&lt;span id=&quot;docs-internal-guid-fa85a85b-7fff-c361-f418-830695fadd17&quot;&gt;&lt;span style=&quot;font-size: 11pt ; font-family: &amp;#34;arial&amp;#34; ; background-color: transparent ; vertical-align: baseline&quot;&gt;dealer_zip&lt;br&gt;&lt;u&gt;latitude&lt;br&gt;longitude&lt;/u&gt;&lt;/span&gt;&lt;/span&gt;" style="rounded=1;whiteSpace=wrap;html=1;" vertex="1" parent="1">
          <mxGeometry x="1710" y="380" width="130" height="80" as="geometry" />
        </mxCell>
        <mxCell id="kHCigE6dLtSPf8LyAXuR-14" value="Interior" style="text;html=1;align=center;verticalAlign=middle;resizable=0;points=[];autosize=1;" vertex="1" parent="1">
          <mxGeometry x="225" y="350" width="50" height="20" as="geometry" />
        </mxCell>
        <mxCell id="kHCigE6dLtSPf8LyAXuR-15" value="WheelSystem" style="text;html=1;align=center;verticalAlign=middle;resizable=0;points=[];autosize=1;" vertex="1" parent="1">
          <mxGeometry x="375" y="350" width="90" height="20" as="geometry" />
        </mxCell>
        <mxCell id="kHCigE6dLtSPf8LyAXuR-16" value="Car" style="text;html=1;align=center;verticalAlign=middle;resizable=0;points=[];autosize=1;" vertex="1" parent="1">
          <mxGeometry x="575" y="350" width="30" height="20" as="geometry" />
        </mxCell>
        <mxCell id="kHCigE6dLtSPf8LyAXuR-17" value="Engine" style="text;html=1;align=center;verticalAlign=middle;resizable=0;points=[];autosize=1;" vertex="1" parent="1">
          <mxGeometry x="735" y="350" width="50" height="20" as="geometry" />
        </mxCell>
        <mxCell id="kHCigE6dLtSPf8LyAXuR-18" value="Depreciation_Factor" style="text;html=1;align=center;verticalAlign=middle;resizable=0;points=[];autosize=1;" vertex="1" parent="1">
          <mxGeometry x="875" y="350" width="120" height="20" as="geometry" />
        </mxCell>
        <mxCell id="kHCigE6dLtSPf8LyAXuR-19" value="Fuel" style="text;html=1;align=center;verticalAlign=middle;resizable=0;points=[];autosize=1;" vertex="1" parent="1">
          <mxGeometry x="1080" y="350" width="40" height="20" as="geometry" />
        </mxCell>
        <mxCell id="kHCigE6dLtSPf8LyAXuR-20" value="Trim" style="text;html=1;align=center;verticalAlign=middle;resizable=0;points=[];autosize=1;" vertex="1" parent="1">
          <mxGeometry x="1210" y="350" width="40" height="20" as="geometry" />
        </mxCell>
        <mxCell id="kHCigE6dLtSPf8LyAXuR-21" value="Listing" style="text;html=1;strokeColor=none;fillColor=none;align=center;verticalAlign=middle;whiteSpace=wrap;rounded=0;" vertex="1" parent="1">
          <mxGeometry x="1350" y="350" width="40" height="20" as="geometry" />
        </mxCell>
        <mxCell id="kHCigE6dLtSPf8LyAXuR-22" value="User" style="text;html=1;align=center;verticalAlign=middle;resizable=0;points=[];autosize=1;" vertex="1" parent="1">
          <mxGeometry x="1490" y="350" width="40" height="20" as="geometry" />
        </mxCell>
        <mxCell id="kHCigE6dLtSPf8LyAXuR-23" value="Dealer" style="text;html=1;align=center;verticalAlign=middle;resizable=0;points=[];autosize=1;" vertex="1" parent="1">
          <mxGeometry x="1615" y="350" width="50" height="20" as="geometry" />
        </mxCell>
        <mxCell id="kHCigE6dLtSPf8LyAXuR-24" value="Dealer_address" style="text;html=1;align=center;verticalAlign=middle;resizable=0;points=[];autosize=1;" vertex="1" parent="1">
          <mxGeometry x="1725" y="350" width="100" height="20" as="geometry" />
        </mxCell>
        <mxCell id="kHCigE6dLtSPf8LyAXuR-25" value="SavedListing" style="text;html=1;align=center;verticalAlign=middle;resizable=0;points=[];autosize=1;" vertex="1" parent="1">
          <mxGeometry x="1860" y="350" width="80" height="20" as="geometry" />
        </mxCell>
        <mxCell id="kHCigE6dLtSPf8LyAXuR-33" value="" style="endArrow=none;html=1;" edge="1" parent="1">
          <mxGeometry width="50" height="50" relative="1" as="geometry">
            <mxPoint x="565" y="660" as="sourcePoint" />
            <mxPoint x="615" y="660" as="targetPoint" />
            <Array as="points" />
          </mxGeometry>
        </mxCell>
        <mxCell id="kHCigE6dLtSPf8LyAXuR-34" value="" style="endArrow=none;html=1;" edge="1" parent="1">
          <mxGeometry width="50" height="50" relative="1" as="geometry">
            <mxPoint x="555" y="560" as="sourcePoint" />
            <mxPoint x="625" y="560" as="targetPoint" />
            <Array as="points">
              <mxPoint x="605" y="559.76" />
            </Array>
          </mxGeometry>
        </mxCell>
        <mxCell id="kHCigE6dLtSPf8LyAXuR-35" value="" style="endArrow=none;html=1;" edge="1" parent="1">
          <mxGeometry width="50" height="50" relative="1" as="geometry">
            <mxPoint x="560" y="590" as="sourcePoint" />
            <mxPoint x="620" y="590" as="targetPoint" />
            <Array as="points" />
          </mxGeometry>
        </mxCell>
        <mxCell id="kHCigE6dLtSPf8LyAXuR-36" value="" style="endArrow=none;html=1;" edge="1" parent="1">
          <mxGeometry width="50" height="50" relative="1" as="geometry">
            <mxPoint x="560" y="620" as="sourcePoint" />
            <mxPoint x="620" y="620" as="targetPoint" />
            <Array as="points">
              <mxPoint x="625" y="620" />
            </Array>
          </mxGeometry>
        </mxCell>
        <mxCell id="kHCigE6dLtSPf8LyAXuR-37" value="" style="endArrow=none;html=1;" edge="1" parent="1">
          <mxGeometry width="50" height="50" relative="1" as="geometry">
            <mxPoint x="565" y="730" as="sourcePoint" />
            <mxPoint x="615" y="730" as="targetPoint" />
            <Array as="points" />
          </mxGeometry>
        </mxCell>
        <mxCell id="kHCigE6dLtSPf8LyAXuR-39" value="" style="endArrow=none;html=1;" edge="1" parent="1">
          <mxGeometry width="50" height="50" relative="1" as="geometry">
            <mxPoint x="555" y="690" as="sourcePoint" />
            <mxPoint x="625" y="690" as="targetPoint" />
            <Array as="points" />
          </mxGeometry>
        </mxCell>
        <mxCell id="kHCigE6dLtSPf8LyAXuR-40" value="Text" style="text;html=1;strokeColor=none;fillColor=none;align=center;verticalAlign=middle;whiteSpace=wrap;rounded=0;" vertex="1" parent="1">
          <mxGeometry x="1030" y="440" width="40" height="20" as="geometry" />
        </mxCell>
        <mxCell id="kHCigE6dLtSPf8LyAXuR-41" value="&lt;font style=&quot;font-size: 48px&quot;&gt;Relational Table&lt;/font&gt;" style="text;html=1;align=center;verticalAlign=middle;resizable=0;points=[];autosize=1;" vertex="1" parent="1">
          <mxGeometry x="890" y="130" width="360" height="30" as="geometry" />
        </mxCell>
      </root>
    </mxGraphModel>
  </diagram>
</mxfile>
